<svg width="40" height="40" viewBox="0 0 40 40" fill="none" xmlns="http://www.w3.org/2000/svg">
<g clip-path="url(#clip0_2_2213)">
<path d="M25.2326 14.5271C38.2463 14.5271 37.2849 14.5244 37.4853 14.5321C37.3675 14.0826 37.1336 13.6575 36.7819 13.3058L33.214 9.73786C32.443 8.9668 31.2593 8.74264 30.2683 9.18037C29.7361 9.4155 29.102 9.29684 28.6904 8.88523C28.2788 8.4737 28.1602 7.83958 28.3952 7.30743C28.8329 6.3166 28.6089 5.13276 27.8377 4.36162L24.2698 0.793699C23.2123 -0.263713 21.4916 -0.263792 20.4341 0.793699L15.9702 5.25754C17.2282 6.51652 23.9779 13.2714 25.2326 14.5271Z" fill="#009F91"/>
<path d="M14.3064 6.92139L6.70068 14.5271H21.9049C21.8774 14.4995 21.2955 13.917 14.3064 6.92139Z" fill="#009F91"/>
<path d="M38.3112 27.2358C39.3213 26.8448 39.9999 25.8492 39.9999 24.7586V19.7129C39.9999 18.2174 38.7832 17.0006 37.2876 17.0006H31.7646V40.1199H37.2876C38.7832 40.1199 39.9999 38.9031 39.9999 37.4076V32.3619C39.9999 31.2714 39.3214 30.2758 38.3112 29.8847C37.7686 29.6745 37.4041 29.1423 37.4041 28.5602C37.4041 27.9782 37.7686 27.4459 38.3112 27.2358Z" fill="#009F91"/>
<path d="M0 19.5923V24.638C0 25.7286 0.678667 26.7242 1.68871 27.1151C2.23129 27.3253 2.59576 27.8576 2.59576 28.4396C2.59576 29.0217 2.23122 29.5539 1.68863 29.7641C0.678588 30.1552 0 31.1507 0 32.2413V37.287C0 38.7825 1.21678 39.9993 2.71231 39.9993H29.4118V16.88H2.71231C1.21678 16.88 0 18.0967 0 19.5923ZM8.23529 22.3522H25.8824V24.7052H8.23529V22.3522ZM8.23529 27.0581H25.8824V29.4111H8.23529V27.0581ZM8.23529 31.764H25.8824V34.1169H8.23529V31.764Z" fill="#009F91"/>
</g>
<defs>
<clipPath id="clip0_2_2213">
<rect width="40" height="40" fill="white"/>
</clipPath>
</defs>
</svg>
