<svg width="20" height="24" viewBox="0 0 20 24" fill="none" xmlns="http://www.w3.org/2000/svg">
<path d="M19.4376 3.8873L15.6876 0.137297C15.5997 0.0494062 15.4805 0 15.3562 0H0.893555C0.634711 0 0.424805 0.209859 0.424805 0.46875V23.5312C0.424805 23.7901 0.634711 24 0.893555 24H19.1061C19.365 24 19.5749 23.7901 19.5749 23.5312V4.21875C19.5749 4.09444 19.5255 3.97519 19.4376 3.8873ZM15.8249 1.60041L17.9745 3.75H15.8249V1.60041H15.8249ZM1.3623 23.0625V0.9375H14.8874V4.21875C14.8874 4.47764 15.0973 4.6875 15.3561 4.6875H18.6374V23.0625H1.3623ZM15.8672 15.9165C15.8672 16.1754 15.6573 16.3853 15.3985 16.3853H4.60132C4.34248 16.3853 4.13257 16.1754 4.13257 15.9165C4.13257 15.6577 4.34248 15.4478 4.60132 15.4478H15.3985C15.6573 15.4478 15.8672 15.6577 15.8672 15.9165ZM15.8672 20.2255C15.8672 20.4844 15.6573 20.6942 15.3985 20.6942H4.60132C4.34248 20.6942 4.13257 20.4844 4.13257 20.2255C4.13257 19.9666 4.34248 19.7567 4.60132 19.7567H15.3985C15.6573 19.7567 15.8672 19.9666 15.8672 20.2255ZM15.8672 18.071C15.8672 18.3299 15.6573 18.5398 15.3985 18.5398H4.60132C4.34248 18.5398 4.13257 18.3299 4.13257 18.071C4.13257 17.8121 4.34248 17.6023 4.60132 17.6023H15.3985C15.6573 17.6023 15.8672 17.8121 15.8672 18.071ZM8.93351 13.2698C11.5808 13.2698 13.7344 11.1162 13.7344 8.46891C13.7344 5.82164 11.5808 3.66797 8.93351 3.66797C6.28624 3.66797 4.13257 5.82169 4.13257 8.46891C4.13257 11.1161 6.28624 13.2698 8.93351 13.2698ZM11.9748 10.8472L10.0652 8.93766H12.7675C12.6806 9.65236 12.398 10.3072 11.9748 10.8472ZM12.7675 8.00016H9.40221V4.63491C11.1583 4.84842 12.554 6.24403 12.7675 8.00016ZM8.46476 4.63491V8.46891C8.46476 8.59322 8.51416 8.71247 8.60205 8.80036L11.3119 11.5102C10.6556 12.0245 9.83009 12.3323 8.93355 12.3323C6.80327 12.3323 5.07012 10.5992 5.07012 8.46891C5.07007 6.49734 6.55488 4.86708 8.46476 4.63491Z" fill="#2D2B2E" fill-opacity="0.6"/>
</svg>
